<svg width="32" height="32" viewBox="0 0 32 32" fill="none" xmlns="http://www.w3.org/2000/svg">
<circle cx="16" cy="16" r="16" fill="#C30F16"/>
<path d="M14.1587 22.2858C14.5445 22.2858 14.8571 21.9731 14.8571 21.5874C14.8571 21.2016 14.5445 20.8889 14.1587 20.8889C13.773 20.8889 13.4603 21.2016 13.4603 21.5874C13.4603 21.9731 13.773 22.2858 14.1587 22.2858Z" fill="white" stroke="white" stroke-width="1.5" stroke-linecap="round" stroke-linejoin="round"/>
<path d="M19.0476 22.2858C19.4333 22.2858 19.746 21.9731 19.746 21.5874C19.746 21.2016 19.4333 20.8889 19.0476 20.8889C18.6619 20.8889 18.3492 21.2016 18.3492 21.5874C18.3492 21.9731 18.6619 22.2858 19.0476 22.2858Z" fill="white" stroke="white" stroke-width="1.5" stroke-linecap="round" stroke-linejoin="round"/>
<path d="M8.57143 9.71429H10.7325L12.3533 18.8989H20.9977" stroke="white" stroke-width="2" stroke-linecap="round" stroke-linejoin="round"/>
<path d="M12.0635 16.6764L20.7762 16.7375C20.8386 16.7376 20.8992 16.7159 20.9475 16.6764C20.9959 16.6368 21.029 16.5817 21.0412 16.5204L22.0137 11.658C22.0216 11.6187 22.0206 11.5783 22.0109 11.5395C22.0012 11.5007 21.9831 11.4645 21.9577 11.4336C21.9323 11.4027 21.9004 11.3778 21.8643 11.3607C21.8281 11.3436 21.7886 11.3348 21.7487 11.3348L11.1813 11.3348" stroke="white" stroke-width="2" stroke-linecap="round" stroke-linejoin="round"/>
</svg>
