<svg width="21" height="20" viewBox="0 0 21 20" fill="none" xmlns="http://www.w3.org/2000/svg">
<path d="M19.249 10L20.353 8.092C20.4857 7.86244 20.5218 7.58958 20.4533 7.33343C20.3849 7.07727 20.2175 6.85878 19.988 6.726L18.078 5.622V3.422C18.078 3.15678 17.9727 2.90243 17.7851 2.71489C17.5976 2.52735 17.3432 2.422 17.078 2.422H14.879L13.776 0.512996C13.6428 0.283913 13.4247 0.116502 13.169 0.0469964C13.0422 0.0126123 12.9098 0.00374622 12.7795 0.020912C12.6492 0.0380778 12.5236 0.0809341 12.41 0.146997L10.5 1.251L8.59001 0.145996C8.36033 0.0133941 8.08739 -0.0225405 7.83121 0.0460973C7.57504 0.114735 7.35662 0.282324 7.22401 0.511997L6.12001 2.422H3.92101C3.65579 2.422 3.40144 2.52735 3.2139 2.71489C3.02637 2.90243 2.92101 3.15678 2.92101 3.422V5.621L1.01101 6.725C0.897043 6.79055 0.797151 6.87798 0.717075 6.98226C0.636999 7.08654 0.578317 7.20561 0.5444 7.33264C0.510483 7.45966 0.501999 7.59214 0.519437 7.72246C0.536874 7.85277 0.579889 7.97836 0.646011 8.092L1.75001 10L0.646011 11.908C0.513999 12.1378 0.478183 12.4104 0.546369 12.6665C0.614555 12.9226 0.781215 13.1413 1.01001 13.275L2.92001 14.379V16.578C2.92001 16.8432 3.02537 17.0976 3.2129 17.2851C3.40044 17.4726 3.65479 17.578 3.92001 17.578H6.12001L7.22401 19.488C7.31254 19.6393 7.43895 19.765 7.59079 19.8527C7.74263 19.9404 7.91468 19.987 8.09001 19.988C8.26401 19.988 8.43701 19.942 8.59101 19.853L10.499 18.749L12.409 19.853C12.6386 19.9854 12.9114 20.0213 13.1675 19.9529C13.4236 19.8845 13.642 19.7173 13.775 19.488L14.878 17.578H17.077C17.3422 17.578 17.5966 17.4726 17.7841 17.2851C17.9717 17.0976 18.077 16.8432 18.077 16.578V14.379L19.987 13.275C20.1008 13.2092 20.2005 13.1217 20.2804 13.0174C20.3603 12.9131 20.4189 12.7941 20.4528 12.6671C20.4867 12.5402 20.4953 12.4078 20.478 12.2775C20.4607 12.1473 20.4179 12.0217 20.352 11.908L19.249 10ZM7.99901 4.99C8.39697 4.99013 8.77857 5.14834 9.05988 5.42984C9.34118 5.71133 9.49914 6.09304 9.49901 6.491C9.49888 6.88895 9.34066 7.27056 9.05917 7.55186C8.77768 7.83317 8.39597 7.99113 7.99801 7.991C7.60005 7.99086 7.21845 7.83265 6.93714 7.55116C6.65584 7.26966 6.49788 6.88795 6.49801 6.49C6.49814 6.09204 6.65636 5.71043 6.93785 5.42913C7.21934 5.14783 7.60105 4.98986 7.99901 4.99ZM8.29901 14.59L6.69901 13.391L12.699 5.391L14.299 6.59L8.29901 14.59ZM12.999 14.99C12.802 14.9899 12.6069 14.9511 12.4248 14.8756C12.2428 14.8001 12.0774 14.6895 11.9381 14.5502C11.7989 14.4108 11.6884 14.2453 11.613 14.0633C11.5377 13.8812 11.4989 13.686 11.499 13.489C11.4991 13.2919 11.538 13.0968 11.6134 12.9148C11.6889 12.7328 11.7995 12.5674 11.9389 12.4281C12.0782 12.2888 12.2437 12.1784 12.4258 12.103C12.6078 12.0277 12.803 11.9889 13 11.989C13.398 11.9891 13.7796 12.1473 14.0609 12.4288C14.3422 12.7103 14.5001 13.092 14.5 13.49C14.4999 13.888 14.3417 14.2696 14.0602 14.5509C13.7787 14.8322 13.397 14.9901 12.999 14.99Z" fill="white"/>
</svg>
