<svg width="32" height="33" viewBox="0 0 32 33" fill="none" xmlns="http://www.w3.org/2000/svg">
<path d="M1 31.7998H30.3" stroke="#C30F16" stroke-width="2" stroke-linecap="round" stroke-linejoin="round"/>
<path d="M2.69995 28.2C3.23794 25.1354 4.83336 22.3564 7.20861 20.3466C9.58385 18.3367 12.5886 17.2233 15.7 17.2C18.805 17.2072 21.8065 18.3172 24.1692 20.3319C26.532 22.3466 28.1022 25.135 28.5999 28.2" fill="#FFC4C4"/>
<path d="M2.69995 28.2C3.23794 25.1354 4.83336 22.3564 7.20861 20.3466C9.58385 18.3367 12.5886 17.2233 15.7 17.2C18.805 17.2072 21.8065 18.3172 24.1692 20.3319C26.532 22.3466 28.1022 25.135 28.5999 28.2" stroke="#C30F16" stroke-width="2" stroke-linecap="round" stroke-linejoin="round"/>
<path d="M15.6999 17.0999C17.1358 17.0999 18.2999 15.9358 18.2999 14.4999C18.2999 13.064 17.1358 11.8999 15.6999 11.8999C14.2639 11.8999 13.0999 13.064 13.0999 14.4999C13.0999 15.9358 14.2639 17.0999 15.6999 17.0999Z" fill="#C30F16" stroke="#C30F16" stroke-width="2" stroke-linecap="round" stroke-linejoin="round"/>
<path d="M15.7 4V7.69998" stroke="#C30F16" stroke-width="2" stroke-linecap="round" stroke-linejoin="round"/>
<path d="M8 6.5V10.1" stroke="#C30F16" stroke-width="2" stroke-linecap="round" stroke-linejoin="round"/>
<path d="M23.3999 6.5V10.1" stroke="#C30F16" stroke-width="2" stroke-linecap="round" stroke-linejoin="round"/>
</svg>
