<svg width="30" height="28" viewBox="0 0 30 28" fill="none" xmlns="http://www.w3.org/2000/svg">
<path d="M1 14H28.4V16.6C28.4 19.1726 27.3781 21.6399 25.559 23.459C23.7399 25.2781 21.2726 26.3 18.7 26.3H10.7C8.12741 26.3 5.66017 25.2781 3.84106 23.459C2.02196 21.6399 1 19.1726 1 16.6V14Z" fill="#FFC4C4" stroke="#C30F16" stroke-width="2" stroke-linecap="round" stroke-linejoin="round"/>
<path d="M1.8999 2.30005H2.29987C4.12986 2.30005 5.88489 3.02701 7.17889 4.32101C8.4729 5.61502 9.19989 7.37005 9.19989 9.20004H8.79987C6.96987 9.20004 5.21484 8.47308 3.92084 7.17908C2.62684 5.88508 1.8999 4.13004 1.8999 2.30005Z" fill="#FFC4C4" stroke="#C30F16" stroke-width="2" stroke-linejoin="round"/>
<path d="M12 4.20001C12.1627 3.30808 12.6311 2.50069 13.3246 1.91669C14.0181 1.33268 14.8934 1.00853 15.8 1C16.8263 1.02535 17.8037 1.44441 18.5297 2.17038C19.2556 2.89635 19.6747 3.87366 19.7 4.90002C19.6824 5.30667 19.6153 5.70964 19.5 6.10001L20.7 5.90002C21.7264 5.92538 22.7037 6.34441 23.4296 7.07037C24.1556 7.79634 24.5746 8.77366 24.6 9.80002" fill="#FFC4C4"/>
<path d="M12 4.20001C12.1627 3.30808 12.6311 2.50069 13.3246 1.91669C14.0181 1.33268 14.8934 1.00853 15.8 1C16.8263 1.02535 17.8037 1.44441 18.5297 2.17038C19.2556 2.89635 19.6747 3.87366 19.7 4.90002C19.6824 5.30667 19.6153 5.70964 19.5 6.10001L20.7 5.90002C21.7264 5.92538 22.7037 6.3444 23.4296 7.07037C24.1556 7.79634 24.5746 8.77366 24.6 9.80002" stroke="#C30F16" stroke-width="2" stroke-linecap="round" stroke-linejoin="round"/>
<path d="M19.2998 10.1001C18.2389 10.1001 17.2215 9.67867 16.4714 8.92853C15.7212 8.17838 15.2998 7.16096 15.2998 6.1001" fill="#FFC4C4"/>
<path d="M19.2998 10.1001C18.2389 10.1001 17.2215 9.67867 16.4714 8.92853C15.7212 8.17838 15.2998 7.16096 15.2998 6.1001" stroke="#C30F16" stroke-width="2" stroke-linecap="round" stroke-linejoin="round"/>
</svg>
