<svg width="30" height="31" viewBox="0 0 30 31" fill="none" xmlns="http://www.w3.org/2000/svg">
<path d="M6.59998 8.36266H3.89997C3.53722 8.38982 3.17274 8.3434 2.82838 8.22618C2.48401 8.10897 2.16692 7.92336 1.89607 7.68053C1.62522 7.4377 1.40618 7.14264 1.25221 6.81307C1.09823 6.4835 1.01247 6.12621 1.00001 5.76265C0.998198 5.05343 1.26559 4.36995 1.74818 3.85024C2.23077 3.33053 2.89257 3.01332 3.59998 2.96267L19.6 1.06267C20.1672 0.963571 20.7488 0.982159 21.3085 1.1173C21.8683 1.25244 22.3942 1.50123 22.8538 1.84822C23.3133 2.19522 23.6965 2.63299 23.9797 3.13436C24.2629 3.63572 24.4401 4.18996 24.5 4.76265C24.53 5.51294 24.3371 6.25533 23.9455 6.89605C23.554 7.53676 22.9814 8.0471 22.3 8.36266" fill="#FFC4C4"/>
<path d="M6.59998 8.36266H3.89997C3.53722 8.38982 3.17274 8.3434 2.82838 8.22618C2.48401 8.10897 2.16692 7.92336 1.89607 7.68053C1.62522 7.4377 1.40618 7.14264 1.25221 6.81307C1.09823 6.4835 1.01247 6.12621 1.00001 5.76265C0.998198 5.05343 1.26559 4.36995 1.74818 3.85024C2.23077 3.33053 2.89257 3.01332 3.59998 2.96267L19.6 1.06267C20.1672 0.963571 20.7488 0.982159 21.3085 1.1173C21.8683 1.25244 22.3942 1.50123 22.8538 1.84822C23.3133 2.19522 23.6965 2.63299 23.9797 3.13436C24.2629 3.63572 24.4401 4.18996 24.5 4.76265C24.53 5.51294 24.3371 6.25533 23.9455 6.89605C23.554 7.53676 22.9814 8.0471 22.3 8.36266" stroke="#C30F16" stroke-width="2" stroke-linecap="round" stroke-linejoin="round"/>
<path d="M24.5 4.66267C25.1478 4.24092 25.923 4.05994 26.6906 4.15132C27.4582 4.24269 28.1693 4.60063 28.7 5.16267" fill="#FFC4C4"/>
<path d="M24.5 4.66267C25.1478 4.24092 25.923 4.05994 26.6906 4.15132C27.4582 4.24269 28.1693 4.60063 28.7 5.16267" stroke="#C30F16" stroke-width="2" stroke-linecap="round" stroke-linejoin="round"/>
<path d="M14.0999 29.2626C13.8286 29.2629 13.5601 29.2081 13.3107 29.1014C13.0613 28.9947 12.8363 28.8383 12.6492 28.6419C12.4621 28.4455 12.3169 28.213 12.2225 27.9587C12.1281 27.7044 12.0863 27.4335 12.0999 27.1626L12.9999 16.1626H15.2999L16.2 27.1626C16.2 27.7196 15.9787 28.2537 15.5848 28.6475C15.191 29.0413 14.6569 29.2626 14.0999 29.2626Z" fill="#FFC4C4" stroke="#C30F16" stroke-width="2" stroke-linecap="round" stroke-linejoin="round"/>
<path d="M18.1 12.1626C17.9479 13.1274 17.4564 14.0063 16.7139 14.6409C15.9714 15.2755 15.0267 15.6242 14.05 15.6242C13.0732 15.6242 12.1286 15.2755 11.3861 14.6409C10.6436 14.0063 10.1521 13.1274 10 12.1626" fill="#FFC4C4"/>
<path d="M18.1 12.1626C17.9479 13.1274 17.4564 14.0063 16.7139 14.6409C15.9714 15.2755 15.0267 15.6242 14.05 15.6242C13.0732 15.6242 12.1286 15.2755 11.3861 14.6409C10.6436 14.0063 10.1521 13.1274 10 12.1626" stroke="#C30F16" stroke-width="2" stroke-linecap="round" stroke-linejoin="round"/>
<path d="M10 6.7627V12.1627" stroke="#C30F16" stroke-width="2" stroke-linecap="round" stroke-linejoin="round"/>
<path d="M14.1001 6.7627V11.9627" stroke="#C30F16" stroke-width="2" stroke-linecap="round" stroke-linejoin="round"/>
<path d="M18.1001 6.7627V12.1627" stroke="#C30F16" stroke-width="2" stroke-linecap="round" stroke-linejoin="round"/>
</svg>
